<?xml version="1.0" encoding="UTF-8" standalone="no"?>
<!-- Created with Inkscape (http://www.inkscape.org/) -->

<svg
   id="svg2"
   sodipodi:docname="Logo2.svg"
   viewBox="0 0 516.06 515.61"
   version="1.1"
   inkscape:version="1.2.2 (732a01da63, 2022-12-09)"
   xmlns:inkscape="http://www.inkscape.org/namespaces/inkscape"
   xmlns:sodipodi="http://sodipodi.sourceforge.net/DTD/sodipodi-0.dtd"
   xmlns="http://www.w3.org/2000/svg"
   xmlns:svg="http://www.w3.org/2000/svg"
   xmlns:rdf="http://www.w3.org/1999/02/22-rdf-syntax-ns#"
   xmlns:cc="http://creativecommons.org/ns#"
   xmlns:dc="http://purl.org/dc/elements/1.1/">
  <defs
     id="defs8124" />
  <sodipodi:namedview
     id="base"
     bordercolor="#666666"
     inkscape:pageshadow="2"
     inkscape:window-y="-8"
     fit-margin-left="0"
     pagecolor="#ffffff"
     inkscape:window-height="1017"
     inkscape:window-maximized="1"
     inkscape:zoom="0.90844525"
     inkscape:window-x="-8"
     showgrid="false"
     borderopacity="1.0"
     inkscape:current-layer="layer1-2"
     inkscape:cx="135.94655"
     inkscape:cy="124.38834"
     fit-margin-top="0"
     fit-margin-right="0"
     fit-margin-bottom="0"
     inkscape:window-width="1920"
     inkscape:pageopacity="0.0"
     inkscape:document-units="px"
     inkscape:showpageshadow="2"
     inkscape:pagecheckerboard="0"
     inkscape:deskcolor="#d1d1d1">
    <inkscape:grid
       id="grid4040"
       originy="41597.575"
       enabled="true"
       originx="-9189.6634"
       visible="true"
       snapvisiblegridlinesonly="true"
       type="xygrid"
       empspacing="5"
       spacingx="550.464"
       spacingy="549.984" />
  </sodipodi:namedview>
  <g
     id="layer1"
     inkscape:label="Layer 1"
     inkscape:groupmode="layer"
     transform="translate(-231.54 119.43)">
    <g
       id="g5017">
      <g
         id="layer1-2"
         inkscape:label="Layer 1"
         transform="translate(198.23 -55.536)">
        <path
           id="path4649"
           d="m291.34-26.566c-121.68 0-220.67 98.606-220.67 220.29s98.989 220.67 220.67 220.67 220.67-98.989 220.67-220.67-98.99-220.29-220.67-220.29zm0 22.603c109.31 0 197.68 88.369 197.68 197.68s-88.369 197.68-197.68 197.68-197.68-88.369-197.68-197.68 88.369-197.68 197.68-197.68zm0 6.8959l-44.82 129.11-136.77 2.68 108.8 82.37-39.46 131.02 112.25-78.15 111.87 78.15-39.46-131.02 108.8-82.37-136.39-2.68-44.82-129.11z"
           style="block-progression:tb;text-indent:0;color:green;text-transform:none;fill:#ff0000"
           inkscape:connector-curvature="0" />
        <path
           style="fill:#cd0000;stroke-width:1.10078"
           d="M 243.82317,476.99924 C 141.38033,471.25986 55.271955,391.52466 40.154551,288.40483 c -2.342426,-15.97831 -2.342426,-45.66547 0,-61.64378 C 56.444903,115.64024 153.74041,34.210992 265.28841,38.340442 c 18.69674,0.692143 32.40416,2.63486 48.4344,6.864481 62.20317,16.412464 114.12885,59.042137 142.03849,116.609997 15.05119,31.04535 21.91755,60.89476 21.95783,95.45498 0.0691,59.33808 -22.3661,113.57579 -64.34458,155.55426 -45.52035,45.52037 -104.44358,67.82277 -169.55138,64.17508 z m 40.17853,-23.03868 c 29.9807,-3.52233 63.18948,-16.50737 89.16333,-34.86398 13.39003,-9.46318 36.92938,-32.98207 46.52236,-46.48194 15.0179,-21.13415 27.5344,-50.46658 32.95824,-77.23769 2.20145,-10.86599 2.52764,-15.74332 2.52764,-37.79401 0,-22.05068 -0.32619,-26.92802 -2.52764,-37.79401 -5.42384,-26.77111 -17.94034,-56.10354 -32.95824,-77.23769 C 410.1297,129.10104 386.56613,105.54661 373.16503,96.046911 343.89453,75.297793 306.9575,62.201807 271.98446,60.173433 225.08368,57.453273 185.22689,68.150053 146.45551,93.862945 117.8572,112.82913 90.594518,145.271 77.159049,176.3239 43.700816,253.65468 59.862172,340.38204 118.49765,398.16099 c 16.94101,16.69353 30.2846,26.32054 50.71983,36.59285 35.00675,17.59707 73.56655,24.04925 114.78422,19.20672 z"
           id="path8126"
           transform="translate(33.31,-63.894)" />
        <path
           style="fill:#ffffff;stroke-width:1.10078;fill-opacity:1"
           d="m 147.50914,409.27126 c 0.002,-0.48467 8.66285,-29.61162 19.24543,-64.72656 15.48374,-51.37791 18.95458,-64.0603 17.77409,-64.94612 -0.80683,-0.60543 -25.02728,-18.93345 -53.82322,-40.72893 l -52.356267,-39.62814 43.108857,-0.83198 c 23.70986,-0.45758 54.1994,-1.20061 67.75452,-1.65117 l 24.64568,-0.8192 22.10116,-63.67931 22.10117,-63.679317 1.9856,5.888269 c 1.09209,3.238548 11.02825,31.894238 22.08035,63.679318 l 20.09473,57.79104 26.94083,0.82423 c 14.81747,0.45333 45.22451,1.19635 67.57122,1.65118 l 40.63037,0.82694 -53.66663,40.59112 c -45.43476,34.36488 -53.5934,40.94994 -53.18922,42.93049 0.26257,1.28664 8.81216,29.9551 18.99912,63.70765 10.18694,33.75256 18.24778,61.64222 17.91297,61.97704 -0.33482,0.33481 -22.83218,-14.92191 -49.99415,-33.90382 -27.16195,-18.98191 -51.65876,-36.06674 -54.43733,-37.96629 l -5.05196,-3.45374 -48.33596,33.63345 c -26.58478,18.49841 -51.43192,35.82982 -55.21585,38.51425 -3.78394,2.68444 -6.87792,4.48426 -6.87551,3.9996 z"
           id="path8128"
           transform="translate(33.31,-63.894)" />
        <path
           style="fill:#0000d8;fill-opacity:1;stroke-width:1.10078"
           d="M 242.172,454.00156 C 172.5291,448.57115 109.55266,404.84666 79.764745,341.24236 67.793133,315.68011 62.465809,293.45077 61.418585,264.68929 60.196073,231.11359 66.348423,201.7554 80.900976,171.72196 111.63682,108.28955 173.98868,66.120011 244.28015,61.226046 c 98.07504,-6.828365 186.26487,59.684734 206.61931,155.833064 4.44416,20.99291 4.44758,60.13664 0.007,81.04766 -18.26428,86.00924 -90.59854,149.11264 -178.78733,155.97159 -14.75034,1.14722 -14.23251,1.14855 -29.9472,-0.0768 z M 204.66622,371.8271 c 29.0171,-20.19828 53.40266,-36.47691 54.19015,-36.17472 0.78748,0.30219 25.99043,17.713 56.00653,38.6907 30.01612,20.9777 54.79047,37.92556 55.05412,37.66191 0.39979,-0.3998 -32.60497,-111.55108 -37.41053,-125.98871 l -1.52782,-4.59012 54.36528,-41.09233 c 29.9009,-22.60078 54.37722,-41.46384 54.39183,-41.91791 0.0146,-0.45407 -7.27989,-0.82794 -16.20998,-0.8308 -38.94344,-0.0125 -119.66476,-2.33334 -120.36138,-3.4605 -0.3975,-0.64318 -10.56829,-29.59704 -22.60172,-64.34191 -12.03344,-34.744874 -22.15404,-63.175403 -22.49024,-63.178954 -0.33619,-0.0036 -10.61105,28.802822 -22.83303,64.014164 -12.22198,35.21134 -22.3998,64.19864 -22.61737,64.41621 -0.21758,0.21758 -30.93307,0.97929 -68.25666,1.69269 -37.32359,0.71341 -67.861065,1.62646 -67.861065,2.02901 0,0.40256 24.016595,18.9151 53.370205,41.13898 29.35361,22.22388 53.60762,40.79123 53.89781,41.26076 0.29019,0.46954 -8.11782,29.53704 -18.68446,64.59448 -10.56665,35.05742 -19.21708,64.41693 -19.22319,65.24336 -0.0141,1.90752 -4.45706,4.86686 58.80152,-39.16631 z"
           id="path10131"
           transform="translate(33.31,-63.894)" />
      </g>
    </g>
  </g>
  <metadata
     id="metadata8121">
    <rdf:RDF>
      <cc:Work>
        <dc:format>image/svg+xml</dc:format>
        <dc:type
           rdf:resource="http://purl.org/dc/dcmitype/StillImage" />
        <cc:license
           rdf:resource="http://creativecommons.org/licenses/publicdomain/" />
        <dc:publisher>
          <cc:Agent
             rdf:about="http://openclipart.org/">
            <dc:title>Openclipart</dc:title>
          </cc:Agent>
        </dc:publisher>
      </cc:Work>
      <cc:License
         rdf:about="http://creativecommons.org/licenses/publicdomain/">
        <cc:permits
           rdf:resource="http://creativecommons.org/ns#Reproduction" />
        <cc:permits
           rdf:resource="http://creativecommons.org/ns#Distribution" />
        <cc:permits
           rdf:resource="http://creativecommons.org/ns#DerivativeWorks" />
      </cc:License>
    </rdf:RDF>
  </metadata>
</svg>
